<?xml version="1.0" encoding="iso-8859-1"?>
<!-- Generator: Adobe Illustrator 19.0.0, SVG Export Plug-In . SVG Version: 6.00 Build 0)  -->
<svg version="1.1" id="Capa_1" xmlns="http://www.w3.org/2000/svg" xmlns:xlink="http://www.w3.org/1999/xlink" x="0px" y="0px"
	 viewBox="0 0 511.875 511.875" style="enable-background:new 0 0 511.875 511.875;" xml:space="preserve">
<path style="fill:#E6E9ED;" d="M83.979,467.885c-13.278,0-23.994-10.716-23.994-23.994s10.716-23.994,23.994-23.994h15.996h343.916
	l7.998,7.998v31.992c0,4.397-3.601,7.998-7.998,7.998H83.979z"/>
<g style="opacity:0.2;">
	<path d="M67.983,443.891c0-13.278,10.716-23.994,23.994-23.994h-7.998c-13.278,0-23.994,10.716-23.994,23.994
		s10.716,23.994,23.994,23.994h7.998C78.699,467.885,67.983,457.169,67.983,443.891z"/>
</g>
<polygon style="fill:#ED5565;" points="147.963,507.875 125.305,499.877 99.975,507.875 99.975,451.889 147.963,451.889 "/>
<rect x="147.967" y="51.987" style="fill:#FFCE54;" width="255.94" height="31.992"/>
<path style="fill:#ED5565;" d="M451.889,11.997v399.902c0,4.397-3.601,7.998-7.998,7.998H99.975v-7.998V11.997V3.999h343.916
	C448.289,3.999,451.889,7.599,451.889,11.997z M403.901,83.979V51.987H147.963v31.992H403.901z M354.632,259.295
	c5.921-11.833,9.279-25.197,9.279-39.35c0-48.629-39.35-87.979-87.979-87.979s-87.979,39.35-87.979,87.979
	c0,29.594,14.559,55.83,37.03,71.662c6.561,4.796,13.84,8.561,21.674,11.278c9.123,3.281,18.957,5.038,29.274,5.038
	C310.401,307.924,340.237,288.171,354.632,259.295z"/>
<g style="opacity:0.2;">
	<path d="M443.892,3.999h-15.996c4.397,0,7.998,3.601,7.998,7.998v399.902c0,4.397-3.601,7.998-7.998,7.998h15.996
		c4.397,0,7.998-3.601,7.998-7.998V11.997C451.889,7.599,448.289,3.999,443.892,3.999z"/>
</g>
<path style="fill:#656D78;" d="M83.979,419.897c-13.278,0-23.994,10.716-23.994,23.994V27.993c0-13.278,10.716-23.994,23.994-23.994
	h15.996v7.998v399.902v7.998H83.979z"/>
<g style="opacity:0.3;">
	<path style="fill:#FFFFFF;" d="M75.981,27.993c0-13.278,10.716-23.994,23.994-23.994H83.979c-13.278,0-23.994,10.716-23.994,23.994
		v415.898c0-10.458,6.686-19.237,15.996-22.534V27.993z"/>
</g>
<circle style="fill:#FFCE54;" cx="275.927" cy="219.927" r="87.979"/>
<g style="opacity:0.5;">
	<path style="fill:#FFFFFF;" d="M203.942,219.93c0-45.895,35.147-83.526,79.98-87.572c-2.64-0.242-5.296-0.406-7.998-0.406
		c-48.59,0-87.979,39.389-87.979,87.979s39.389,87.979,87.979,87.979c2.702,0,5.358-0.164,7.998-0.406
		C239.089,303.457,203.942,265.818,203.942,219.93z"/>
</g>
<g style="opacity:0.2;">
	<path d="M347.908,219.93c0-45.895-35.147-83.526-79.98-87.572c2.64-0.242,5.296-0.406,7.998-0.406
		c48.59,0,87.979,39.389,87.979,87.979s-39.389,87.979-87.979,87.979c-2.702,0-5.358-0.164-7.998-0.406
		C312.759,303.457,347.908,265.818,347.908,219.93z"/>
</g>
<path style="fill:#656D78;" d="M278.798,256.96l-32.148,45.91c-7.842-2.718-15.113-6.482-21.674-11.278l38.951-55.666l14.48,20.792
	L278.798,256.96z"/>
<g style="opacity:0.2;">
	<path d="M278.798,256.96l-32.148,45.91c-7.842-2.718-15.113-6.482-21.674-11.278l38.951-55.666l14.48,20.792L278.798,256.96z"/>
</g>
<path style="fill:#656D78;" d="M315.915,203.934l38.709,55.346c-14.395,28.876-44.224,48.629-78.699,48.629
	c-10.317,0-20.151-1.757-29.274-5.038l32.148-45.91L315.915,203.934z"/>
<g style="opacity:0.2;">
	<polygon style="fill:#FFFFFF;" points="260.289,306.518 294.794,256.96 323.914,215.369 315.915,203.934 278.798,256.96 
		246.65,302.871 	"/>
</g>
<g style="opacity:0.2;">
	<path d="M246.65,302.871l32.148-45.91l-0.391-0.242l-3.71-5.319l-3.897,5.562l-30.297,43.271
		C242.541,301.122,244.526,302.128,246.65,302.871z"/>
</g>
<path style="fill:#ED5565;" d="M243.932,171.942c8.795,0,15.996,7.201,15.996,15.996s-7.201,15.996-15.996,15.996
	s-15.996-7.201-15.996-15.996S235.137,171.942,243.932,171.942z"/>
<g style="opacity:0.3;">
	<path style="fill:#FFFFFF;" d="M235.934,187.938c0-7.412,5.124-13.63,11.997-15.426c-1.281-0.336-2.609-0.57-3.999-0.57
		c-8.795,0-15.996,7.201-15.996,15.996s7.201,15.996,15.996,15.996c1.39,0,2.718-0.234,3.999-0.57
		C241.058,201.567,235.934,195.342,235.934,187.938z"/>
</g>
<g style="opacity:0.2;">
	<path d="M251.657,187.938c0,7.412-5.132,13.629-11.997,15.426c1.289,0.336,2.616,0.57,3.999,0.57
		c8.803,0,15.996-7.201,15.996-15.996s-7.193-15.996-15.996-15.996c-1.383,0-2.71,0.234-3.999,0.57
		C246.525,174.308,251.657,180.534,251.657,187.938z"/>
</g>
<g style="opacity:0.5;">
	<rect x="147.967" y="51.987" style="fill:#FFFFFF;" width="15.996" height="31.992"/>
</g>
<g style="opacity:0.2;">
	<rect x="387.908" y="51.987" width="15.996" height="31.992"/>
</g>
<g style="opacity:0.3;">
	<polygon style="fill:#FFFFFF;" points="107.973,505.353 99.975,507.875 99.975,451.889 107.973,451.889 	"/>
</g>
<g style="opacity:0.2;">
	<polygon points="139.965,505.353 147.963,507.875 147.963,451.889 139.965,451.889 	"/>
</g>
<g>
	<path style="fill:#3A3847;" d="M443.892,423.896H83.979c-2.21,0-3.999-1.789-3.999-3.999s1.789-3.999,3.999-3.999h359.912
		c2.21,0,3.999,1.789,3.999,3.999S446.102,423.896,443.892,423.896z"/>
	<path style="fill:#3A3847;" d="M443.892,7.998H83.979c-2.21,0-3.999-1.789-3.999-3.999S81.769,0,83.979,0h359.912
		c2.21,0,3.999,1.789,3.999,3.999S446.102,7.998,443.892,7.998z"/>
	<path style="fill:#3A3847;" d="M83.979,471.884c-15.434,0-27.993-12.56-27.993-27.993s12.56-27.993,27.993-27.993
		c2.21,0,3.999,1.789,3.999,3.999s-1.789,3.999-3.999,3.999c-11.028,0-19.995,8.967-19.995,19.995s8.967,19.995,19.995,19.995
		c2.21,0,3.999,1.789,3.999,3.999S86.189,471.884,83.979,471.884z"/>
	<path style="fill:#3A3847;" d="M83.979,455.888c-6.616,0-11.997-5.382-11.997-11.997c0-6.616,5.381-11.997,11.997-11.997
		c2.21,0,3.999,1.789,3.999,3.999s-1.789,3.999-3.999,3.999c-2.203,0-3.999,1.797-3.999,3.999s1.796,3.999,3.999,3.999
		c2.21,0,3.999,1.789,3.999,3.999S86.189,455.888,83.979,455.888z"/>
	<path style="fill:#3A3847;" d="M59.985,31.992c-2.21,0-3.999-1.789-3.999-3.999C55.986,12.559,68.546,0,83.979,0
		c2.21,0,3.999,1.789,3.999,3.999s-1.789,3.999-3.999,3.999c-11.028,0-19.995,8.967-19.995,19.995
		C63.984,30.203,62.195,31.992,59.985,31.992z"/>
	<path style="fill:#3A3847;" d="M59.985,447.89c-2.21,0-3.999-1.789-3.999-3.999V27.993c0-2.21,1.789-3.999,3.999-3.999
		s3.999,1.789,3.999,3.999v415.898C63.984,446.101,62.195,447.89,59.985,447.89z"/>
	<path style="fill:#3A3847;" d="M451.889,15.996c-2.21,0-3.999-1.789-3.999-3.999c0-2.203-1.797-3.999-3.999-3.999
		c-2.21,0-3.999-1.789-3.999-3.999S441.682,0,443.892,0c6.615,0,11.997,5.381,11.997,11.997
		C455.888,14.207,454.099,15.996,451.889,15.996z"/>
	<path style="fill:#3A3847;" d="M443.892,423.896c-2.21,0-3.999-1.789-3.999-3.999s1.789-3.999,3.999-3.999
		c2.202,0,3.999-1.797,3.999-3.999c0-2.21,1.789-3.999,3.999-3.999s3.999,1.789,3.999,3.999
		C455.888,418.514,450.507,423.896,443.892,423.896z"/>
	<path style="fill:#3A3847;" d="M443.892,471.884H163.959c-2.21,0-3.999-1.789-3.999-3.999s1.789-3.999,3.999-3.999h279.932
		c2.21,0,3.999,1.789,3.999,3.999S446.102,471.884,443.892,471.884z"/>
	<path style="fill:#3A3847;" d="M443.892,471.884c-2.21,0-3.999-1.789-3.999-3.999s1.789-3.999,3.999-3.999
		c2.202,0,3.999-1.797,3.999-3.999c0-2.21,1.789-3.999,3.999-3.999s3.999,1.789,3.999,3.999
		C455.888,466.502,450.507,471.884,443.892,471.884z"/>
	<path style="fill:#3A3847;" d="M451.889,415.898c-2.21,0-3.999-1.789-3.999-3.999V11.997c0-2.21,1.789-3.999,3.999-3.999
		s3.999,1.789,3.999,3.999v399.902C455.888,414.109,454.099,415.898,451.889,415.898z"/>
	<path style="fill:#3A3847;" d="M451.889,463.886c-2.21,0-3.999-1.789-3.999-3.999v-31.992c0-2.21,1.789-3.999,3.999-3.999
		s3.999,1.789,3.999,3.999v31.992C455.888,462.097,454.099,463.886,451.889,463.886z"/>
	<path style="fill:#3A3847;" d="M99.975,415.898c-2.21,0-3.999-1.789-3.999-3.999V11.997c0-2.21,1.789-3.999,3.999-3.999
		s3.999,1.789,3.999,3.999v399.902C103.974,414.109,102.186,415.898,99.975,415.898z"/>
	<path style="fill:#3A3847;" d="M435.893,455.888H163.959c-2.21,0-3.999-1.789-3.999-3.999s1.789-3.999,3.999-3.999h271.934
		c2.21,0,3.999,1.789,3.999,3.999S438.103,455.888,435.893,455.888z"/>
	<path style="fill:#3A3847;" d="M435.893,439.892H83.979c-2.21,0-3.999-1.789-3.999-3.999s1.789-3.999,3.999-3.999h351.914
		c2.21,0,3.999,1.789,3.999,3.999S438.103,439.892,435.893,439.892z"/>
	<path style="fill:#3A3847;" d="M403.901,87.978H147.963c-2.21,0-3.999-1.789-3.999-3.999V51.987c0-2.21,1.789-3.999,3.999-3.999
		h255.938c2.21,0,3.999,1.789,3.999,3.999v31.992C407.901,86.189,406.112,87.978,403.901,87.978z M151.962,79.98h247.939V55.986
		H151.962V79.98z"/>
	<path style="fill:#3A3847;" d="M363.911,71.982H187.954c-2.21,0-3.999-1.789-3.999-3.999s1.789-3.999,3.999-3.999h175.957
		c2.21,0,3.999,1.789,3.999,3.999S366.121,71.982,363.911,71.982z"/>
	<path style="fill:#3A3847;" d="M363.911,359.912H187.954c-2.21,0-3.999-1.789-3.999-3.999s1.789-3.999,3.999-3.999h175.957
		c2.21,0,3.999,1.789,3.999,3.999S366.121,359.912,363.911,359.912z"/>
	<path style="fill:#3A3847;" d="M315.922,375.908h-79.98c-2.21,0-3.999-1.789-3.999-3.999s1.789-3.999,3.999-3.999h79.98
		c2.21,0,3.999,1.789,3.999,3.999S318.133,375.908,315.922,375.908z"/>
	<path style="fill:#3A3847;" d="M99.975,511.875c-2.21,0-3.999-1.789-3.999-3.999V451.89c0-2.21,1.789-3.999,3.999-3.999
		s3.999,1.789,3.999,3.999v55.986C103.974,510.085,102.186,511.875,99.975,511.875z"/>
	<path style="fill:#3A3847;" d="M147.963,511.875c-2.21,0-3.999-1.789-3.999-3.999V451.89c0-2.21,1.789-3.999,3.999-3.999
		s3.999,1.789,3.999,3.999v55.986C151.962,510.085,150.174,511.875,147.963,511.875z"/>
	<path style="fill:#3A3847;" d="M99.975,511.875c-1.672,0-3.233-1.062-3.796-2.733c-0.695-2.094,0.438-4.358,2.53-5.062
		l23.994-7.998c2.094-0.688,4.358,0.438,5.062,2.53c0.695,2.094-0.438,4.358-2.531,5.062l-23.994,7.998
		C100.819,511.812,100.397,511.875,99.975,511.875z"/>
	<path style="fill:#3A3847;" d="M147.963,511.875c-0.422,0-0.844-0.062-1.266-0.203l-23.994-7.998
		c-2.093-0.703-3.226-2.968-2.53-5.062c0.711-2.093,2.976-3.21,5.061-2.53l23.994,7.998c2.093,0.703,3.226,2.968,2.531,5.062
		C151.197,510.812,149.635,511.875,147.963,511.875z"/>
	<path style="fill:#3A3847;" d="M123.969,487.88c-2.21,0-3.999-1.789-3.999-3.999v-30.992c0-2.211,1.789-3.999,3.999-3.999
		s3.999,1.788,3.999,3.999v30.992C127.968,486.091,126.18,487.88,123.969,487.88z"/>
	<path style="fill:#3A3847;" d="M275.932,311.908c-10.599,0-20.901-1.773-30.625-5.272c-8.224-2.851-15.871-6.834-22.69-11.817
		c-24.189-17.035-38.662-45.051-38.662-74.888c0-50.714,41.264-91.978,91.978-91.978s91.978,41.264,91.978,91.978
		c0,14.434-3.265,28.274-9.701,41.139C342.565,292.428,311.042,311.908,275.932,311.908z M275.932,135.951
		c-46.309,0-83.979,37.67-83.979,83.979c0,27.243,13.208,52.808,35.327,68.39c6.233,4.562,13.177,8.17,20.69,10.771
		c8.896,3.202,18.284,4.819,27.962,4.819c32.055,0,60.845-17.785,75.122-46.418c5.882-11.748,8.857-24.385,8.857-37.562
		C359.913,173.621,322.241,135.951,275.932,135.951z"/>
	<path style="fill:#3A3847;" d="M224.976,295.591c-0.797,0-1.594-0.234-2.297-0.727c-1.804-1.266-2.249-3.757-0.976-5.568
		l38.959-55.667c1.265-1.812,3.757-2.25,5.568-0.976c1.805,1.265,2.25,3.757,0.977,5.568l-38.959,55.666
		C227.475,294.998,226.233,295.591,224.976,295.591z"/>
	<path style="fill:#3A3847;" d="M278.409,260.717c-1.257,0-2.507-0.602-3.28-1.711l-14.473-20.792
		c-1.266-1.82-0.82-4.312,0.991-5.569c1.82-1.258,4.312-0.812,5.569,0.992l14.474,20.792c1.265,1.82,0.819,4.312-0.992,5.569
		C279.995,260.483,279.198,260.717,278.409,260.717z"/>
	<path style="fill:#3A3847;" d="M246.658,306.87c-0.796,0-1.593-0.234-2.296-0.726c-1.805-1.266-2.25-3.758-0.977-5.569
		l69.265-98.937c1.266-1.812,3.757-2.25,5.568-0.976c1.805,1.265,2.25,3.757,0.977,5.568l-69.264,98.938
		C249.158,306.276,247.916,306.87,246.658,306.87z"/>
	<path style="fill:#3A3847;" d="M354.632,263.279c-1.257,0-2.499-0.594-3.28-1.711l-38.709-55.346
		c-1.266-1.804-0.82-4.295,0.992-5.568c1.796-1.242,4.287-0.836,5.568,0.992l38.709,55.346c1.266,1.804,0.82,4.295-0.991,5.568
		C356.225,263.044,355.428,263.279,354.632,263.279z"/>
	<path style="fill:#3A3847;" d="M243.94,207.933c-11.028,0-19.995-8.967-19.995-19.995s8.967-19.995,19.995-19.995
		s19.995,8.967,19.995,19.995S254.968,207.933,243.94,207.933z M243.94,175.941c-6.616,0-11.997,5.381-11.997,11.997
		c0,6.615,5.381,11.997,11.997,11.997c6.615,0,11.997-5.382,11.997-11.997C255.937,181.322,250.555,175.941,243.94,175.941z"/>
</g>
<g>
</g>
<g>
</g>
<g>
</g>
<g>
</g>
<g>
</g>
<g>
</g>
<g>
</g>
<g>
</g>
<g>
</g>
<g>
</g>
<g>
</g>
<g>
</g>
<g>
</g>
<g>
</g>
<g>
</g>
</svg>
