<?xml version="1.0"?>
<svg xmlns="http://www.w3.org/2000/svg" id="outline" viewBox="0 0 512 512" fill="#e91e63" width="512" height="512">
    <path d="M416,16H112A40.04552,40.04552,0,0,0,72,56V408a40.04552,40.04552,0,0,0,40,40v40a7.99955,7.99955,0,0,0,12.43748,6.65625L144,481.61523l19.56248,13.041A7.99958,7.99958,0,0,0,176,488V448H416a24.0275,24.0275,0,0,0,24-24V40A24.02718,24.02718,0,0,0,416,16ZM160,473.05176l-11.56252-7.708a7.99891,7.99891,0,0,0-8.875,0L128,473.05176V416h32ZM416,432H176V416h64V400H120a8.00008,8.00008,0,0,0-8,8v24a24,24,0,0,1,0-48H416a23.89427,23.89427,0,0,0,8-1.376V400H296v16H424v8A8.00917,8.00917,0,0,1,416,432Zm8-72a8.00917,8.00917,0,0,1-8,8H112a39.79847,39.79847,0,0,0-24,8.01855V56a24.02718,24.02718,0,0,1,24-24H416a8.00917,8.00917,0,0,1,8,8V360Z" />
    <path d="M376,200A120,120,0,1,0,256,320,120.13623,120.13623,0,0,0,376,200ZM256,304c-12.66272,0-26.29211-19.13525-33.92279-50.16553A261.76723,261.76723,0,0,0,256,256a261.77023,261.77023,0,0,0,33.92285-2.16553C282.29211,284.86475,268.66272,304,256,304Zm0-64a242.9311,242.9311,0,0,1-37.228-2.772,251.37538,251.37538,0,0,1,0-74.45606,251.37538,251.37538,0,0,1,74.45606,0,251.37538,251.37538,0,0,1,0,74.45606A242.92993,242.92993,0,0,1,256,240Zm-53.83459-6.07715C171.13556,226.29224,152,212.66309,152,200s19.13556-26.29224,50.16541-33.92285a266.79676,266.79676,0,0,0,0,67.8457ZM256,96c12.66272,0,26.29211,19.13525,33.92285,50.16553a266.78163,266.78163,0,0,0-67.84564,0C229.70789,115.13525,243.33728,96,256,96Zm53.83459,70.07715C340.8645,173.70776,360,187.33691,360,200s-19.1355,26.29224-50.16541,33.92285a266.79676,266.79676,0,0,0,0-67.8457ZM354.78687,167.48a101.33286,101.33286,0,0,0-16.4397-8.77393,168.06259,168.06259,0,0,0-31.40869-9.64453,168.07166,168.07166,0,0,0-9.64405-31.4082A101.34725,101.34725,0,0,0,288.52,101.21313,104.48085,104.48085,0,0,1,354.78687,167.48ZM223.48,101.21313a101.34263,101.34263,0,0,0-8.77447,16.44019,168.06722,168.06722,0,0,0-9.644,31.4082,168.06046,168.06046,0,0,0-31.40875,9.64453,101.32742,101.32742,0,0,0-16.4397,8.77393A104.48067,104.48067,0,0,1,223.48,101.21313ZM157.21313,232.52a101.32742,101.32742,0,0,0,16.4397,8.77393,168.06046,168.06046,0,0,0,31.40875,9.64453,168.06722,168.06722,0,0,0,9.644,31.4082,101.34554,101.34554,0,0,0,8.77453,16.44043A104.48206,104.48206,0,0,1,157.21313,232.52ZM288.5199,298.78711a101.34087,101.34087,0,0,0,8.77453-16.44043,168.07166,168.07166,0,0,0,9.64405-31.4082,168.06259,168.06259,0,0,0,31.40869-9.64453,101.33286,101.33286,0,0,0,16.4397-8.77393A104.48219,104.48219,0,0,1,288.5199,298.78711Z" />
    <path d="M146.22314,94.86621A150.989,150.989,0,0,0,112.65088,149.334l15.08594,5.332a135.09,135.09,0,0,1,30.04-48.73145Z" />
    <path d="M188.00586,82.18945l-8.01172-13.84961A152.87617,152.87617,0,0,0,160.45166,81.7793l10.06348,12.43945A136.827,136.827,0,0,1,188.00586,82.18945Z" />
    <path d="M354.22314,294.06543l11.55372,11.06836A150.989,150.989,0,0,0,399.34912,250.666l-15.08594-5.332A135.09,135.09,0,0,1,354.22314,294.06543Z" />
    <path d="M323.99414,317.81055l8.01172,13.84961a152.87617,152.87617,0,0,0,19.54248-13.43946l-10.06348-12.43945A136.827,136.827,0,0,1,323.99414,317.81055Z" />
    <rect x="264" y="400" width="16" height="16" />
</svg>
