<svg id="Capa_1" enable-background="new 0 0 512 512" height="512" viewBox="0 0 512 512" width="512" xmlns="http://www.w3.org/2000/svg"><g><path d="m437.02 74.98c-48.353-48.351-112.64-74.98-181.02-74.98l-20 256 20 256c68.38 0 132.667-26.629 181.02-74.98 48.351-48.353 74.98-112.64 74.98-181.02s-26.629-132.667-74.98-181.02z" fill="#ffc34d"/><path d="m74.98 74.98c-48.351 48.353-74.98 112.64-74.98 181.02s26.629 132.667 74.98 181.02c48.353 48.351 112.64 74.98 181.02 74.98v-512c-68.38 0-132.667 26.629-181.02 74.98z" fill="#ffe14d"/><path d="m256 60-10 15.667 10 14.333c91.533 0 166 74.467 166 166s-74.467 166-166 166l-10 15 10 15c108.075 0 196-87.925 196-196s-87.925-196-196-196z" fill="#ffe14d"/><path d="m90 256c0-91.533 74.467-166 166-166v-30c-108.075 0-196 87.925-196 196s87.925 196 196 196v-30c-91.533 0-166-74.467-166-166z" fill="#ff9"/><path d="m304.106 365.394-48.106-48.107-10 13.713 10 28.713 26.894 26.893z" fill="#ffe14d"/><path d="m306.981 241h31.519v-30h-31.509c-2.258-11.078-6.967-21.275-13.532-30h45.041v-30h-82.5l-10 18.026 10 18.026c9.183 5.328 16.322 13.805 19.92 23.948h-19.92l-10 15 10 15h19.92c-3.598 10.143-10.737 18.62-19.92 23.948l-10 17.552 10 15.036c25.732-8.114 45.519-29.745 50.981-56.536z" fill="#ffe14d"/><g fill="#ff9"><path d="m173.5 211h82.5v30h-82.5z"/><path d="m173.5 151v30h60c8.194 0 15.877 2.209 22.5 6.052v-36.052z"/><path d="m239.478 300.764c5.712-.453 11.24-1.562 16.522-3.228v-32.588c-6.623 3.843-14.306 6.052-22.5 6.052h-66.213l88.713 88.713v-42.426z"/></g></g></svg>