<?xml version="1.0"?>
<svg xmlns="http://www.w3.org/2000/svg" xmlns:xlink="http://www.w3.org/1999/xlink" xmlns:svgjs="http://svgjs.com/svgjs" version="1.1" width="512" height="512" x="0" y="0" viewBox="0 0 512 512" style="enable-background:new 0 0 512 512" xml:space="preserve" class=""><g><g xmlns="http://www.w3.org/2000/svg" id="Flat"><path d="m408 24a31.991 31.991 0 0 0 -32 32v400a32 32 0 0 1 -32 32h-256v-432a32 32 0 0 1 32-32z" fill="#ffb531" data-original="#60d1e0" style="" class=""/><path d="m408 24a31.991 31.991 0 0 0 -32 32v400a32 32 0 0 1 -32 32h-256v-104.69c105.88-63.71 201-176.15 264.1-359.31z" fill="#f3ad30" data-original="#5ac6d4" style="" class=""/><path d="m344 488h-288a32 32 0 0 1 -32-32v-16h288v16a32 32 0 0 0 32 32z" fill="#ffe3b0" data-original="#b7e7eb" style="" class=""/><path d="m440 72h-64v-16a32 32 0 0 1 32-32 32 32 0 0 1 32 32z" fill="#f1cd14" data-original="#57bfcc" style="" class=""/><path d="m262.051 91.553c7.261-11.5-6.1-24.865-17.6-17.6-3-13.265-21.9-13.265-24.894 0-11.5-7.261-24.865 6.105-17.6 17.6-13.265 3-13.265 21.9 0 24.894-7.261 11.5 6.1 24.865 17.6 17.6 3 13.265 21.9 13.265 24.894 0 11.5 7.261 24.865-6.1 17.6-17.6 13.265-2.996 13.265-21.898 0-24.894z" fill="#fff575" data-original="#ffb531" style="" class=""/><g fill="#3fb5c4"><path d="m192 200h80v16h-80z" fill="#ffe3b0" data-original="#3fb5c4" style="" class=""/><path d="m216 168h80v16h-80z" fill="#ffe3b0" data-original="#3fb5c4" style="" class=""/><path d="m168 168h32v16h-32z" fill="#ffe3b0" data-original="#3fb5c4" style="" class=""/><path d="m152 240h192v16h-192z" fill="#ffe3b0" data-original="#3fb5c4" style="" class=""/><path d="m120 240h16v16h-16z" fill="#ffe3b0" data-original="#3fb5c4" style="" class=""/><path d="m152 272h128v16h-128z" fill="#ffe3b0" data-original="#3fb5c4" style="" class=""/><path d="m296 272h48v16h-48z" fill="#ffe3b0" data-original="#3fb5c4" style="" class=""/><path d="m152 304h192v16h-192z" fill="#ffe3b0" data-original="#3fb5c4" style="" class=""/><path d="m120 304h16v16h-16z" fill="#ffe3b0" data-original="#3fb5c4" style="" class=""/><path d="m152 336h48v16h-48z" fill="#ffe3b0" data-original="#3fb5c4" style="" class=""/><path d="m216 336h128v16h-128z" fill="#ffe3b0" data-original="#3fb5c4" style="" class=""/><path d="m152 368h128v16h-128z" fill="#ffe3b0" data-original="#3fb5c4" style="" class=""/><path d="m120 368h16v16h-16z" fill="#ffe3b0" data-original="#3fb5c4" style="" class=""/><path d="m152 400h192v16h-192z" fill="#ffe3b0" data-original="#3fb5c4" style="" class=""/><path d="m296 368h48v16h-48z" fill="#ffe3b0" data-original="#3fb5c4" style="" class=""/></g><path d="m432 120a24 24 0 0 0 -24 24v256h48v-256a24 24 0 0 0 -24-24z" fill="#f3ad30" data-original="#92563a" style="" class=""/><path d="m496 256h-16v-88a8.009 8.009 0 0 0 -8-8h-64v-16h64a24.028 24.028 0 0 1 24 24z" fill="#fff575" data-original="#ffb531" style="" class=""/><path d="m408 400 24 48 24-48z" fill="#fff575" data-original="#ffb531" style="" class=""/><path d="m408 224h48v16h-48z" fill="#fff575" data-original="#ffb531" style="" class=""/></g></g></svg>
