<svg id="Layer_1" data-name="Layer 1" xmlns="http://www.w3.org/2000/svg" viewBox="0 0 353 327.09"><defs><style>.cls-1,.cls-2{fill:#fff;}.cls-1{stroke:#000;stroke-miterlimit:10;stroke-width:3px;fill-rule:evenodd;}.cls-3{fill:#1d1d1b;}.cls-4{fill:#a50202;}.cls-5{fill:red;}.cls-6{fill:#42210b;}</style></defs><title>appicon</title><path class="cls-1" d="M707.24,544.54V334.32a14,14,0,0,0-4.12-10,13.8,13.8,0,0,0-9.82-4.07h0c-32.69.08-92.15,7.65-123.1,57.51a13.41,13.41,0,0,0-1.92,7.1v220c37.69-39.47,92.35-46.27,125-46.34a14.06,14.06,0,0,0,14-14Z" transform="translate(-384.74 -318.79)"/><path class="cls-1" d="M418.31,569.48c32.41.09,99.17,6.78,136.93,45.43v27.23C514,599,441.51,591.52,405.82,591.43c-8.47,0-19.58-6.89-19.58-15.33V347c0-5.25,12.06-14.74,18-15.37V555.44a14.08,14.08,0,0,0,14.07,14Z" transform="translate(-384.74 -318.79)"/><path class="cls-1" d="M416.24,544.54V334.32a14,14,0,0,1,13.94-14h0c32.69.08,92.14,7.65,123.09,57.51a13.41,13.41,0,0,1,1.93,7.1v220c-37.7-39.47-92.36-46.27-125-46.34a14.06,14.06,0,0,1-14-14Z" transform="translate(-384.74 -318.79)"/><path class="cls-1" d="M704.18,569.48c-32.43.09-99.19,6.78-136.94,45.43v27.23C608.5,599,681,591.52,716.67,591.43c8.46,0,19.57-6.89,19.57-15.33V347c0-5.25-12.06-14.75-18-15.37V555.44a14.08,14.08,0,0,1-14.06,14Z" transform="translate(-384.74 -318.79)"/><path class="cls-2" d="M639.34,370.79c29.76,0,54,22.74,54,50.71s-24.22,50.72-54,50.72-54-22.75-54-50.72S609.57,370.79,639.34,370.79Zm22.84,53c0-15.24-12.68-27.59-28.28-27.59s-28.28,12.35-28.28,27.59,12.67,27.6,28.28,27.6S662.18,439,662.18,423.78Z" transform="translate(-384.74 -318.79)"/><path class="cls-2" d="M645.8,426.07a6.34,6.34,0,1,1-6.46,6.34A6.39,6.39,0,0,1,645.8,426.07Z" transform="translate(-384.74 -318.79)"/><path class="cls-2" d="M620.88,406.47a8.66,8.66,0,1,1-9,8.65A8.83,8.83,0,0,1,620.88,406.47Z" transform="translate(-384.74 -318.79)"/><path class="cls-3" d="M605.62,423.78c0-15.24,12.67-27.59,28.28-27.59s28.28,12.35,28.28,27.59-12.68,27.6-28.28,27.6S605.62,439,605.62,423.78Zm15.26-17.31a8.66,8.66,0,1,0,9,8.65A8.83,8.83,0,0,0,620.88,406.47Zm31.39,25.94a6.47,6.47,0,1,0-6.47,6.33A6.39,6.39,0,0,0,652.27,432.41Z" transform="translate(-384.74 -318.79)"/><path class="cls-4" d="M585.35,421.5c0,28,24.22,50.72,54,50.72s54-22.75,54-50.72-24.22-50.71-54-50.71S585.35,393.53,585.35,421.5Zm-2.29-.8a25.42,25.42,0,0,0-12.21-6.46c3.8-32.79,33.07-58.37,68.49-58.37,38,0,68.9,29.44,68.9,65.63s-30.91,65.63-68.9,65.63c-34.92,0-63.84-24.85-68.31-56.95a8.2,8.2,0,0,1,1.68,1.26,7.46,7.46,0,1,0,10.35-10.74Z" transform="translate(-384.74 -318.79)"/><path class="cls-4" d="M583.06,420.7a7.46,7.46,0,0,1-10.35,10.74,8.2,8.2,0,0,0-1.68-1.26,63,63,0,0,1-.18-15.94A25.42,25.42,0,0,1,583.06,420.7Z" transform="translate(-384.74 -318.79)"/><path class="cls-4" d="M570.85,414.24a63,63,0,0,0,.18,15.94c-4.79-2.82-12.46-1.88-17.5-.68a64.23,64.23,0,0,0,.51-8,60.72,60.72,0,0,0-.44-7.29A43.5,43.5,0,0,1,570.85,414.24Z" transform="translate(-384.74 -318.79)"/><path class="cls-4" d="M553.6,414.21a60.72,60.72,0,0,1,.44,7.29,64.23,64.23,0,0,1-.51,8,35.15,35.15,0,0,0-4.3,1.25,7.45,7.45,0,0,1-5.31-13.93A56.21,56.21,0,0,1,553.6,414.21Z" transform="translate(-384.74 -318.79)"/><path class="cls-4" d="M485.14,472.22c29.76,0,54-22.75,54-50.72s-24.22-50.71-54-50.71-54,22.74-54,50.71S455.37,472.22,485.14,472.22Zm54.47-45.78a7.45,7.45,0,0,0,9.62,4.31,35.15,35.15,0,0,1,4.3-1.25c-4.15,32.42-33.23,57.63-68.39,57.63-38,0-68.9-29.44-68.9-65.63s30.91-65.63,68.9-65.63c35.39,0,64.64,25.57,68.46,58.34a56.21,56.21,0,0,0-9.68,2.61A7.44,7.44,0,0,0,539.61,426.44Z" transform="translate(-384.74 -318.79)"/><path class="cls-2" d="M485.14,370.79c29.76,0,54,22.74,54,50.71s-24.22,50.72-54,50.72-54-22.75-54-50.72S455.37,370.79,485.14,370.79Zm28.28,50.71c0-15.24-12.65-27.59-28.28-27.59s-28.28,12.35-28.28,27.59,12.68,27.6,28.28,27.6S513.42,436.75,513.42,421.5Z" transform="translate(-384.74 -318.79)"/><path class="cls-2" d="M497,423.78a6.34,6.34,0,1,1-6.44,6.34A6.41,6.41,0,0,1,497,423.78Z" transform="translate(-384.74 -318.79)"/><path class="cls-2" d="M472.12,404.18a8.67,8.67,0,1,1-9,8.69A8.85,8.85,0,0,1,472.12,404.18Z" transform="translate(-384.74 -318.79)"/><path class="cls-3" d="M456.86,421.5c0-15.24,12.68-27.59,28.28-27.59s28.28,12.35,28.28,27.59-12.65,27.6-28.28,27.6S456.86,436.75,456.86,421.5Zm15.26-17.32a8.67,8.67,0,1,0,9,8.69A8.86,8.86,0,0,0,472.12,404.18Zm31.39,25.94a6.46,6.46,0,1,0-6.47,6.34A6.41,6.41,0,0,0,503.51,430.12Z" transform="translate(-384.74 -318.79)"/><path class="cls-5" d="M475.75,535a13.52,13.52,0,0,1-9.92,4.1,9.94,9.94,0,0,1-7.19-2.59,8.94,8.94,0,0,1-2.72-6.77,8.36,8.36,0,0,1,4.6-7.75q4.17-2.37,11.72-2.36h3.51c0-.71,0-1.41,0-2.08v-2.11c0-2.51-.36-4.28-1.1-5.31s-2.22-1.74-4.21-1.74q-6.83,0-7,4.89a10,10,0,0,0,0,1.26,3,3,0,0,1-1.89.45,4.44,4.44,0,0,1-1.94-.31,3.15,3.15,0,0,1-1.05-.84,4.09,4.09,0,0,1-1-2.8,4.65,4.65,0,0,1,1-3,7.36,7.36,0,0,1,2.71-2.1,17.65,17.65,0,0,1,7.89-1.66,20.07,20.07,0,0,1,6.85.89,9.4,9.4,0,0,1,3.63,2.35,9.77,9.77,0,0,1,2.39,6.94L481.82,528a18.54,18.54,0,0,0,.35,4.67,2.71,2.71,0,0,0,.85,1.32,2.09,2.09,0,0,0,1.2.33,2.63,2.63,0,0,0,1.17-.22l.79-.37q.39-.13.69.33a1.63,1.63,0,0,1,.29.81,2.13,2.13,0,0,1-.29.91,4.07,4.07,0,0,1-1.1,1.2A9.51,9.51,0,0,1,484,538q-5.59,2.64-7.62-1.24A5.65,5.65,0,0,1,475.75,535Zm-.08-3.68q0-4,.05-8a47.54,47.54,0,0,0-7.93.74,14.9,14.9,0,0,0-3,1,4.54,4.54,0,0,0-1.46,1.13,4.94,4.94,0,0,0-.88,3.21,4.25,4.25,0,0,0,1.52,3.43,6.59,6.59,0,0,0,4.36,1.28A11.34,11.34,0,0,0,475.67,531.3Z" transform="translate(-384.74 -318.79)"/><path class="cls-5" d="M500.59,519.38l0,7.39q0,4.63.48,5.58a2,2,0,0,0,1.12,1.12,5.92,5.92,0,0,0,1.66.19,10.25,10.25,0,0,0,1.84-.16,10.47,10.47,0,0,0,1.56-.41,12.54,12.54,0,0,0,1.41-.56l1.37-.59c.32-.11.68.22,1.07,1a1.46,1.46,0,0,1,.17.71,2.44,2.44,0,0,1-.34,1.06,5.4,5.4,0,0,1-1.3,1.47,11.86,11.86,0,0,1-2.27,1.48,11.36,11.36,0,0,1-5,1.43,22.25,22.25,0,0,1-3.64-.25,5.4,5.4,0,0,1-2.39-1q-2-1.56-2-5.76V509.94h-2.78a1.47,1.47,0,0,1-1.27-.56,2.6,2.6,0,0,1-.67-1.46c0-.66.16-1,.48-1.1q4.47-.75,6.32-6.63a25,25,0,0,0,.84-4.18,13.71,13.71,0,0,1,2-.23,1.46,1.46,0,0,1,1.19.7,2.69,2.69,0,0,1,.5,1.63c0,.62,0,1.2-.05,1.75s0,1.13,0,1.77l-.12,3.93h9.73a2.79,2.79,0,0,1,.36,1.38v.87a2.2,2.2,0,0,1-1.26,1.92,5.41,5.41,0,0,1-2.8.75c-1,0-1.75,0-2.19-.05s-.87-.06-1.28-.09l-1.23-.17-1.38-.12v.31Z" transform="translate(-384.74 -318.79)"/><path class="cls-6" d="M598.79,529.13a1.91,1.91,0,0,1,1.24-.5c.67,0,1.06.09,1.16.28a13.52,13.52,0,0,1,.86,5.65,9.41,9.41,0,0,1-.62,4c-.13.23-.27.35-.41.35H576.84c-1.73,0-2.6-.52-2.6-1.56a2,2,0,0,1,.35-1.27,5,5,0,0,0,1.44.22,6,6,0,0,0,1.21-.11,2.29,2.29,0,0,0,.94-.46,3.25,3.25,0,0,0,1.05-2.74V510.78a2.28,2.28,0,0,0-1.53-2.43c-.29-.1-.6-.19-.91-.27l-.9-.24a4.35,4.35,0,0,1-.75-.28,1.19,1.19,0,0,1-.75-1.07,1.93,1.93,0,0,1,.35-1.29,3.13,3.13,0,0,0,.79.11h22.4a5.16,5.16,0,0,1,2.52.37c.61.44.92,1.4.92,2.89a14,14,0,0,1-.36,3.5,9.28,9.28,0,0,1-.52,1.62.87.87,0,0,1-.85.4,2.47,2.47,0,0,1-1.26-.23c-.23-.15-.35-.27-.36-.34-.19-2.09-.52-3.42-1-4a3.52,3.52,0,0,0-1.65-1.18,8.05,8.05,0,0,0-2.49-.32H588a5.2,5.2,0,0,0-2.83.46,2,2,0,0,0-.65,1.07,7.24,7.24,0,0,0-.13,1.54v9.33l1.29,0a44.37,44.37,0,0,0,9-.86,1.54,1.54,0,0,1,.55.87,4.4,4.4,0,0,1,.24,1.41,4.85,4.85,0,0,1-.4,2.06c-1,.09-2.07.13-3.33.13s-3.7-.2-7.33-.61v9.87a2.47,2.47,0,0,0,.87,2.22A5.32,5.32,0,0,0,588,536l3.3-.09c3.2-.12,5.28-.56,6.24-1.34a3.11,3.11,0,0,0,1.08-1.73,9.23,9.23,0,0,0,.26-2.15C598.83,530,598.81,529.45,598.79,529.13Z" transform="translate(-384.74 -318.79)"/><path class="cls-6" d="M627.12,536.29a9.67,9.67,0,0,0,1.38.16,4.61,4.61,0,0,0,.91-.1,2.58,2.58,0,0,0,.8-.32,1.65,1.65,0,0,0,.78-1.51,4.33,4.33,0,0,0-.52-1.91l-2.06-5.1H614.55l-2.45,6.22a3.63,3.63,0,0,0-.35,1.24,1.1,1.1,0,0,0,.12.57.89.89,0,0,0,.37.31,2.79,2.79,0,0,0,.62.22l.9.24a8.58,8.58,0,0,1,1.86.44,1.33,1.33,0,0,1,.86,1.23,1.59,1.59,0,0,1-.33,1,2.75,2.75,0,0,0-.77-.11h-8.91c-1.94,0-2.91-.54-2.91-1.6a2,2,0,0,1,.33-1.21,5.2,5.2,0,0,0,1.37.22,2.39,2.39,0,0,0,.94-.17,2.29,2.29,0,0,0,.73-.59,11.58,11.58,0,0,0,1.38-2.89l10.82-26.19c.3-.7,1.17-1.19,2.6-1.45a7.18,7.18,0,0,1,1.25-.11c.89,0,1.44.24,1.64.72l2.19,5.48q6.33,14.93,7.32,17.43l2,5.17a6.73,6.73,0,0,0,1,2.08,2.15,2.15,0,0,0,.86.54,7,7,0,0,0,.95.26,4.2,4.2,0,0,1,.86.25,1.21,1.21,0,0,1,.84,1.14,1.54,1.54,0,0,1-.33,1,3.16,3.16,0,0,0-.75-.11H629.07a4.46,4.46,0,0,1-1.74-.27.89.89,0,0,1-.63-.84A2.11,2.11,0,0,1,627.12,536.29Zm0-11.89-5.74-14.19-5.62,14.19Z" transform="translate(-384.74 -318.79)"/><path class="cls-6" d="M661.47,514.55q0-5-3.56-6.29a8.62,8.62,0,0,0-2.87-.43,9.43,9.43,0,0,0-2.83.37,5.9,5.9,0,0,0-2,1,4.19,4.19,0,0,0-1.6,3.41q0,3.23,4.73,5.5l2.74,1.29c1.33.61,2.61,1.24,3.84,1.87a16.7,16.7,0,0,1,3.28,2.18,8.38,8.38,0,0,1,3.13,6.61,8,8,0,0,1-3.68,6.81,14.65,14.65,0,0,1-8.63,2.41,19.09,19.09,0,0,1-7.27-1.29,6.26,6.26,0,0,1-3.3-2.61,4,4,0,0,1-.51-2.08,9,9,0,0,1,1.23-4.57,1.4,1.4,0,0,1,1.14-.51q1.39,0,1.62.84c.19,2.52,1,4.36,2.33,5.51a8.56,8.56,0,0,0,5.73,1.73q4.22,0,5.67-2.76a4.86,4.86,0,0,0,.5-2.26,4,4,0,0,0-.7-2.33,8.36,8.36,0,0,0-1.86-1.91,23.08,23.08,0,0,0-4.7-2.54,46,46,0,0,1-4.55-2.14,13.69,13.69,0,0,1-2.88-2.15,8.89,8.89,0,0,1-2.72-6.59,7.49,7.49,0,0,1,3.44-6.42,14.58,14.58,0,0,1,8.54-2.32q6.63,0,8.67,2.74a4.16,4.16,0,0,1,.75,2.58,11.32,11.32,0,0,1-.3,2.78,4.66,4.66,0,0,1-.58,1.54,2,2,0,0,1-1.65.59C661.87,515.12,661.47,514.93,661.47,514.55Z" transform="translate(-384.74 -318.79)"/><path class="cls-6" d="M695.63,529.13a1.94,1.94,0,0,1,1.25-.5c.67,0,1.06.09,1.16.28a13.52,13.52,0,0,1,.86,5.65,9.41,9.41,0,0,1-.62,4c-.13.23-.27.35-.41.35H673.69c-1.73,0-2.6-.52-2.6-1.56a2,2,0,0,1,.35-1.27,4.94,4.94,0,0,0,1.44.22,6,6,0,0,0,1.21-.11,2.29,2.29,0,0,0,.94-.46,3.25,3.25,0,0,0,1.05-2.74V510.78a2.28,2.28,0,0,0-1.53-2.43c-.3-.1-.6-.19-.91-.27l-.9-.24a4.06,4.06,0,0,1-.75-.28,1.19,1.19,0,0,1-.75-1.07,1.93,1.93,0,0,1,.35-1.29,3.07,3.07,0,0,0,.79.11h22.4a5.16,5.16,0,0,1,2.52.37c.61.44.92,1.4.92,2.89a14,14,0,0,1-.36,3.5,10.33,10.33,0,0,1-.52,1.62.87.87,0,0,1-.85.4,2.42,2.42,0,0,1-1.26-.23c-.23-.15-.35-.27-.36-.34-.19-2.09-.52-3.42-1-4a3.62,3.62,0,0,0-1.65-1.18,8.14,8.14,0,0,0-2.49-.32h-4.88a5.27,5.27,0,0,0-2.84.46,2,2,0,0,0-.64,1.07,7.24,7.24,0,0,0-.13,1.54v9.33l1.29,0a44.37,44.37,0,0,0,9-.86,1.54,1.54,0,0,1,.54.87,4.41,4.41,0,0,1,.25,1.41,5,5,0,0,1-.4,2.06c-1,.09-2.07.13-3.33.13s-3.7-.2-7.33-.61v9.87a2.47,2.47,0,0,0,.87,2.22,5.3,5.3,0,0,0,2.67.48l3.31-.09c3.2-.12,5.28-.56,6.24-1.34a3,3,0,0,0,1.07-1.73,8.74,8.74,0,0,0,.27-2.15C695.68,530,695.66,529.45,695.63,529.13Z" transform="translate(-384.74 -318.79)"/></svg>