<svg id="Layer_1" data-name="Layer 1" xmlns="http://www.w3.org/2000/svg" viewBox="0 0 752.14 376.5"><defs><style>.cls-1,.cls-4{fill:#fff;}.cls-1{stroke:#000;stroke-miterlimit:10;stroke-width:3px;fill-rule:evenodd;}.cls-2{fill:#732700;}.cls-3{fill:#a50202;}.cls-5{fill:#1d1d1b;}.cls-6{fill:red;}.cls-7{fill:#42210b;}.cls-8{fill:#ff1c00;}</style></defs><title>logo</title><path class="cls-1" d="M732,549.25V339a14,14,0,0,0-4.12-10,13.78,13.78,0,0,0-9.82-4.07h0c-32.69.08-92.15,7.65-123.1,57.51A13.4,13.4,0,0,0,593,389.6v220c37.69-39.47,92.35-46.27,125-46.34a14.06,14.06,0,0,0,14-14Z" transform="translate(-224 -323.5)"/><path class="cls-1" d="M443.07,574.19c32.41.08,99.18,6.78,136.93,45.43v27.23c-41.25-43.18-113.73-50.62-149.41-50.71-8.48,0-19.59-6.89-19.59-15.33V351.7c0-5.26,12.06-14.75,18-15.37V560.15a14.09,14.09,0,0,0,14.07,14Z" transform="translate(-224 -323.5)"/><path class="cls-1" d="M441,549.25V339a14,14,0,0,1,13.94-14h0c32.69.08,92.15,7.65,123.09,57.51A13.4,13.4,0,0,1,580,389.6v220c-37.7-39.47-92.35-46.27-125-46.34a14.06,14.06,0,0,1-14-14Z" transform="translate(-224 -323.5)"/><path class="cls-1" d="M728.94,574.19c-32.43.08-99.19,6.78-136.94,45.43v27.23c41.26-43.18,113.72-50.62,149.43-50.71,8.46,0,19.57-6.89,19.57-15.33V351.7c0-5.25-12.06-14.75-18-15.37V560.15a14.08,14.08,0,0,1-14.06,14Z" transform="translate(-224 -323.5)"/><path class="cls-2" d="M224,591.63v-267h42.15c24.49,0,42.35,1.54,53.68,4.71q24.09,6.42,38.32,23.61t14.25,40.73A59.64,59.64,0,0,1,366,421.35Q359.53,433.8,345,444.72q24.25,11.41,35.52,28.57t11.22,40.54a75.46,75.46,0,0,1-11.66,41Q368.37,573.32,350,582.45t-50.82,9.18Zm50.58-218.7v56.54h11.34c12.65,0,22.07-2.6,28.22-7.87s9.16-12.34,9.16-21.33q0-12.54-8.73-20c-5.83-4.89-14.69-7.38-26.6-7.38Zm0,101.91v68.44h12.89q32.08,0,43.27-8T341.9,512c0-11.47-4.34-20.58-13.07-27.21s-23.26-10-43.53-10Z" transform="translate(-224 -323.5)"/><polygon class="cls-2" points="558.18 1.09 609.5 1.09 609.5 93.44 681.78 1.09 743.08 1.09 649.8 120.29 752.14 268.13 691.82 268.13 609.5 149.17 609.5 268.13 558.18 268.13 558.18 1.09"/><path class="cls-3" d="M664.1,360.57c38,0,68.9,29.46,68.9,65.63s-30.91,65.65-68.9,65.65c-34.92,0-63.84-24.87-68.32-57a8,8,0,0,1,1.69,1.25,7.46,7.46,0,0,0,10.55-.19,7.46,7.46,0,0,0-.2-10.55,25.6,25.6,0,0,0-12.21-6.46C599.41,386.16,628.67,360.57,664.1,360.57Zm54,65.63c0-28-24.22-50.72-54-50.72s-54,22.75-54,50.72,24.23,50.71,54,50.71S718.08,454.17,718.08,426.2Z" transform="translate(-224 -323.5)"/><path class="cls-4" d="M664.1,375.48c29.76,0,54,22.75,54,50.72s-24.22,50.71-54,50.71-54-22.74-54-50.71S634.33,375.48,664.1,375.48Zm22.84,53c0-15.24-12.68-27.59-28.28-27.59s-28.28,12.35-28.28,27.59,12.67,27.6,28.28,27.6S686.94,443.74,686.94,428.48Z" transform="translate(-224 -323.5)"/><path class="cls-5" d="M658.66,400.89c15.6,0,28.28,12.35,28.28,27.59s-12.68,27.6-28.28,27.6-28.28-12.34-28.28-27.6S643.05,400.89,658.66,400.89ZM677,437.1a6.47,6.47,0,1,0-6.47,6.34A6.39,6.39,0,0,0,677,437.1Zm-22.42-17.29a9,9,0,1,0-9,8.67A8.84,8.84,0,0,0,654.61,419.81Z" transform="translate(-224 -323.5)"/><path class="cls-4" d="M670.56,430.76a6.34,6.34,0,1,1-6.46,6.34A6.39,6.39,0,0,1,670.56,430.76Z" transform="translate(-224 -323.5)"/><path class="cls-4" d="M645.63,411.16a8.67,8.67,0,1,1-9,8.65A8.84,8.84,0,0,1,645.63,411.16Z" transform="translate(-224 -323.5)"/><path class="cls-3" d="M607.82,425.39a7.46,7.46,0,0,1-5.17,12.83,7.37,7.37,0,0,1-5.18-2.09,8,8,0,0,0-1.69-1.25,65.56,65.56,0,0,1-.59-8.68,64.66,64.66,0,0,1,.42-7.27A25.6,25.6,0,0,1,607.82,425.39Z" transform="translate(-224 -323.5)"/><path class="cls-3" d="M595.61,418.93a64.66,64.66,0,0,0-.42,7.27,65.56,65.56,0,0,0,.59,8.68c-4.78-2.82-12.45-1.88-17.49-.69a64,64,0,0,0,.5-8,61,61,0,0,0-.43-7.3A43.69,43.69,0,0,1,595.61,418.93Z" transform="translate(-224 -323.5)"/><path class="cls-3" d="M578.36,418.9a61,61,0,0,1,.43,7.3,64,64,0,0,1-.5,8,36.66,36.66,0,0,0-4.3,1.26,7.45,7.45,0,1,1-5.31-13.92A56.46,56.46,0,0,1,578.36,418.9Z" transform="translate(-224 -323.5)"/><path class="cls-3" d="M574,435.45a36.66,36.66,0,0,1,4.3-1.26c-4.15,32.43-33.24,57.66-68.39,57.66-38,0-68.9-29.46-68.9-65.65s30.91-65.63,68.9-65.63c35.39,0,64.64,25.58,68.46,58.33a56.46,56.46,0,0,0-9.68,2.63A7.45,7.45,0,1,0,574,435.45Zm-10.11-9.25c0-28-24.23-50.72-54-50.72s-54,22.75-54,50.72,24.2,50.71,54,50.71S563.88,454.17,563.88,426.2Z" transform="translate(-224 -323.5)"/><path class="cls-4" d="M509.9,375.48c29.75,0,54,22.75,54,50.72s-24.23,50.71-54,50.71-54-22.74-54-50.71S480.12,375.48,509.9,375.48Zm28.28,50.72c0-15.25-12.65-27.58-28.28-27.58S481.62,411,481.62,426.2s12.67,27.59,28.28,27.59S538.18,441.44,538.18,426.2Z" transform="translate(-224 -323.5)"/><path class="cls-5" d="M509.9,398.62c15.63,0,28.28,12.33,28.28,27.58s-12.65,27.59-28.28,27.59-28.28-12.35-28.28-27.59S494.29,398.62,509.9,398.62Zm18.37,36.2a6.46,6.46,0,1,0-6.47,6.34A6.41,6.41,0,0,0,528.27,434.82Zm-22.42-17.26a9,9,0,1,0-9,8.64A8.83,8.83,0,0,0,505.85,417.56Z" transform="translate(-224 -323.5)"/><path class="cls-4" d="M521.8,428.48a6.34,6.34,0,1,1-6.44,6.34A6.41,6.41,0,0,1,521.8,428.48Z" transform="translate(-224 -323.5)"/><path class="cls-4" d="M496.88,408.88a8.67,8.67,0,1,1-9,8.68A8.83,8.83,0,0,1,496.88,408.88Z" transform="translate(-224 -323.5)"/><path class="cls-6" d="M500.51,539.68a13.48,13.48,0,0,1-9.91,4.11,10,10,0,0,1-7.2-2.59,9,9,0,0,1-2.72-6.77,8.35,8.35,0,0,1,4.6-7.75q4.17-2.37,11.72-2.36h3.51c0-.72,0-1.41,0-2.08v-2.11q0-3.76-1.09-5.31c-.83-1.16-2.23-1.74-4.22-1.74q-6.83,0-7,4.89a8.24,8.24,0,0,0,0,1.26,3.1,3.1,0,0,1-1.9.45,4.44,4.44,0,0,1-1.94-.31,3.54,3.54,0,0,1-1-.84,4.09,4.09,0,0,1-1-2.8,4.7,4.7,0,0,1,1-3,7.34,7.34,0,0,1,2.71-2.09A17.65,17.65,0,0,1,494,509a20.07,20.07,0,0,1,6.85.89,9.63,9.63,0,0,1,3.64,2.34,9.85,9.85,0,0,1,2.38,6.94l-.28,13.49a18.44,18.44,0,0,0,.35,4.66,2.7,2.7,0,0,0,.85,1.33,2.09,2.09,0,0,0,1.2.33,2.63,2.63,0,0,0,1.17-.22l.79-.37q.39-.14.69.33a1.6,1.6,0,0,1,.29.81,2.17,2.17,0,0,1-.29.91,4.07,4.07,0,0,1-1.1,1.2,9.51,9.51,0,0,1-1.81,1.11q-5.6,2.64-7.62-1.24A5.63,5.63,0,0,1,500.51,539.68Zm-.08-3.68q0-4,.06-8a47.57,47.57,0,0,0-7.94.74,15.12,15.12,0,0,0-3,1,4.52,4.52,0,0,0-1.46,1.12,5,5,0,0,0-.87,3.22,4.26,4.26,0,0,0,1.51,3.43,6.61,6.61,0,0,0,4.36,1.28A11.3,11.3,0,0,0,500.43,536Z" transform="translate(-224 -323.5)"/><path class="cls-6" d="M525.35,524.09l0,7.39q0,4.63.48,5.58a2,2,0,0,0,1.12,1.12,6.42,6.42,0,0,0,1.66.18,10.3,10.3,0,0,0,1.84-.15,10.15,10.15,0,0,0,1.56-.41,14.78,14.78,0,0,0,1.41-.56l1.37-.59c.32-.11.68.22,1.07,1a1.53,1.53,0,0,1,.17.72,2.37,2.37,0,0,1-.34,1,5.41,5.41,0,0,1-1.3,1.48,11.1,11.1,0,0,1-2.27,1.47,11.25,11.25,0,0,1-5,1.44,21,21,0,0,1-3.64-.26,5.32,5.32,0,0,1-2.39-1c-1.34-1-2-3-2-5.76V514.65h-2.78a1.43,1.43,0,0,1-1.26-.56,2.63,2.63,0,0,1-.68-1.46c0-.66.16-1,.48-1.1q4.47-.75,6.32-6.63a24.94,24.94,0,0,0,.84-4.19,13.41,13.41,0,0,1,2-.22,1.43,1.43,0,0,1,1.19.7,2.63,2.63,0,0,1,.5,1.63c0,.62,0,1.2,0,1.74s0,1.14-.05,1.77l-.11,3.94h9.72a2.78,2.78,0,0,1,.36,1.37v.87a2.21,2.21,0,0,1-1.26,1.93,5.38,5.38,0,0,1-2.8.74c-1,0-1.75,0-2.19,0L528,515l-1.23-.17-1.38-.11v.31Z" transform="translate(-224 -323.5)"/><path class="cls-7" d="M623.55,533.84a1.86,1.86,0,0,1,1.24-.5c.68,0,1.06.09,1.16.28a13.52,13.52,0,0,1,.86,5.65,9.52,9.52,0,0,1-.61,4c-.14.24-.27.35-.42.35H601.61c-1.74,0-2.61-.51-2.61-1.55a2,2,0,0,1,.35-1.27,5,5,0,0,0,1.45.22,6,6,0,0,0,1.2-.11,2.23,2.23,0,0,0,.94-.46,3.25,3.25,0,0,0,1-2.74V515.49a2.28,2.28,0,0,0-1.53-2.43c-.29-.1-.6-.19-.91-.27l-.9-.24a5.37,5.37,0,0,1-.75-.28,1.19,1.19,0,0,1-.75-1.07,1.93,1.93,0,0,1,.35-1.29,3.13,3.13,0,0,0,.79.11h22.4a5.16,5.16,0,0,1,2.52.37c.61.44.92,1.4.92,2.89a14,14,0,0,1-.36,3.5,8.43,8.43,0,0,1-.52,1.62.87.87,0,0,1-.85.4,2.47,2.47,0,0,1-1.26-.23c-.23-.16-.35-.27-.36-.34-.19-2.09-.52-3.42-1-4a3.52,3.52,0,0,0-1.65-1.18,8,8,0,0,0-2.48-.32h-4.89a5.22,5.22,0,0,0-2.83.46,2,2,0,0,0-.65,1.06,7.41,7.41,0,0,0-.13,1.55v9.33l1.29,0a44.37,44.37,0,0,0,9-.86,1.5,1.5,0,0,1,.55.87,4.35,4.35,0,0,1,.24,1.41,4.85,4.85,0,0,1-.4,2.06c-1,.09-2.07.13-3.32.13s-3.71-.2-7.34-.61V538a2.43,2.43,0,0,0,.88,2.21,5.12,5.12,0,0,0,2.67.49l3.3-.09c3.2-.12,5.28-.56,6.24-1.34a3.14,3.14,0,0,0,1.08-1.73,9.23,9.23,0,0,0,.26-2.15C623.59,534.68,623.58,534.16,623.55,533.84Z" transform="translate(-224 -323.5)"/><path class="cls-7" d="M651.88,541a9.33,9.33,0,0,0,1.38.15,4.6,4.6,0,0,0,.91-.09,2.85,2.85,0,0,0,.8-.32,1.66,1.66,0,0,0,.79-1.51,4.36,4.36,0,0,0-.53-1.91l-2.06-5.1H639.31l-2.45,6.22a3.89,3.89,0,0,0-.35,1.24,1,1,0,0,0,.12.56.91.91,0,0,0,.37.32,2.71,2.71,0,0,0,.63.22l.89.24a8.58,8.58,0,0,1,1.86.44,1.33,1.33,0,0,1,.86,1.23,1.54,1.54,0,0,1-.33,1,3.17,3.17,0,0,0-.77-.11h-8.91q-2.91,0-2.91-1.59a2,2,0,0,1,.33-1.21A5.2,5.2,0,0,0,630,541a2.39,2.39,0,0,0,.94-.17,2.2,2.2,0,0,0,.73-.6,10.58,10.58,0,0,0,1.38-2.89l10.82-26.18c.3-.71,1.17-1.19,2.6-1.45a7.18,7.18,0,0,1,1.25-.11c.89,0,1.44.24,1.64.72l2.19,5.48q6.33,14.93,7.32,17.43l2,5.16a6.49,6.49,0,0,0,1,2.08,2.14,2.14,0,0,0,.86.55,7,7,0,0,0,.95.25,4.18,4.18,0,0,1,.86.26,1.19,1.19,0,0,1,.84,1.13,1.57,1.57,0,0,1-.33,1,3.16,3.16,0,0,0-.75-.11H653.83a4.46,4.46,0,0,1-1.74-.27.89.89,0,0,1-.63-.84A2.11,2.11,0,0,1,651.88,541Zm0-11.89-5.73-14.19-5.63,14.19Z" transform="translate(-224 -323.5)"/><path class="cls-7" d="M686.24,519.26c0-3.35-1.19-5.44-3.57-6.29a8.61,8.61,0,0,0-2.87-.44,9.41,9.41,0,0,0-2.83.38,6.18,6.18,0,0,0-2,1,4.21,4.21,0,0,0-1.6,3.42q0,3.23,4.73,5.5l2.74,1.29c1.33.61,2.61,1.24,3.84,1.87a16.7,16.7,0,0,1,3.28,2.18,8.37,8.37,0,0,1,3.13,6.61,8,8,0,0,1-3.68,6.81,14.65,14.65,0,0,1-8.63,2.41,19.13,19.13,0,0,1-7.27-1.29,6.3,6.3,0,0,1-3.3-2.61,4,4,0,0,1-.51-2.08,9,9,0,0,1,1.23-4.57,1.4,1.4,0,0,1,1.14-.51c.93,0,1.47.28,1.62.83q.28,3.79,2.33,5.52a8.58,8.58,0,0,0,5.73,1.73q4.22,0,5.67-2.76A4.86,4.86,0,0,0,686,536a4.06,4.06,0,0,0-.7-2.34,8.33,8.33,0,0,0-1.86-1.9,22.6,22.6,0,0,0-4.7-2.54,44.53,44.53,0,0,1-4.55-2.15,13.32,13.32,0,0,1-2.88-2.14,8.89,8.89,0,0,1-2.72-6.59,7.49,7.49,0,0,1,3.44-6.42,14.53,14.53,0,0,1,8.54-2.32q6.63,0,8.67,2.74a4.14,4.14,0,0,1,.75,2.58,11.38,11.38,0,0,1-.3,2.78,4.66,4.66,0,0,1-.58,1.54,2,2,0,0,1-1.65.59Q686.24,519.83,686.24,519.26Z" transform="translate(-224 -323.5)"/><path class="cls-7" d="M720.39,533.84a1.89,1.89,0,0,1,1.25-.5c.67,0,1.06.09,1.16.28a13.52,13.52,0,0,1,.86,5.65,9.33,9.33,0,0,1-.62,4c-.13.24-.27.35-.41.35H698.45c-1.73,0-2.6-.51-2.6-1.55a1.94,1.94,0,0,1,.35-1.27,4.94,4.94,0,0,0,1.44.22,6,6,0,0,0,1.21-.11,2.29,2.29,0,0,0,.94-.46,3.25,3.25,0,0,0,1.05-2.74V515.49a2.28,2.28,0,0,0-1.53-2.43c-.29-.1-.6-.19-.91-.27l-.9-.24a4.94,4.94,0,0,1-.75-.28,1.19,1.19,0,0,1-.75-1.07,1.93,1.93,0,0,1,.35-1.29,3.07,3.07,0,0,0,.79.11h22.4a5.16,5.16,0,0,1,2.52.37c.61.44.92,1.4.92,2.89a14,14,0,0,1-.36,3.5,9.28,9.28,0,0,1-.52,1.62.87.87,0,0,1-.85.4,2.47,2.47,0,0,1-1.26-.23c-.23-.16-.35-.27-.36-.34-.19-2.09-.52-3.42-1-4a3.57,3.57,0,0,0-1.65-1.18,8.1,8.1,0,0,0-2.49-.32h-4.88a5.2,5.2,0,0,0-2.83.46,2,2,0,0,0-.65,1.06,7.41,7.41,0,0,0-.13,1.55v9.33l1.29,0a44.37,44.37,0,0,0,9-.86,1.55,1.55,0,0,1,.55.87,4.35,4.35,0,0,1,.24,1.41,5,5,0,0,1-.4,2.06c-1,.09-2.07.13-3.33.13s-3.7-.2-7.33-.61V538a2.45,2.45,0,0,0,.87,2.21,5.19,5.19,0,0,0,2.68.49l3.3-.09c3.2-.12,5.28-.56,6.24-1.34a3.14,3.14,0,0,0,1.08-1.73,9.23,9.23,0,0,0,.26-2.15C720.44,534.68,720.42,534.16,720.39,533.84Z" transform="translate(-224 -323.5)"/><path class="cls-8" d="M266.48,699.31c-2.6,0-3.89-.85-3.89-2.56a2.87,2.87,0,0,1,.51-1.81,9.94,9.94,0,0,0,2.58.34,11.27,11.27,0,0,0,2.12-.17,3.16,3.16,0,0,0,1.48-.72c.89-.82,1.36-2.3,1.4-4.44v-8.61L254.21,654a7.44,7.44,0,0,0-2.29-2.69,13.27,13.27,0,0,0-1.45-.63,3.7,3.7,0,0,1-.94-.44,1.68,1.68,0,0,1-1-1.51,3.31,3.31,0,0,1,.55-2.08,13,13,0,0,0,3.38.27h12.34c2.23,0,3.65.37,4.24,1.1a2.35,2.35,0,0,1,.44,1.55,2.49,2.49,0,0,1-.65,1.76,9.08,9.08,0,0,0-2.59-.34c-1.9,0-2.84.73-2.84,2.19a7.71,7.71,0,0,0,1.4,3.82l11,18.94q4.2-7,6.12-10.49l3.21-6a41.16,41.16,0,0,0,2.39-5,5.1,5.1,0,0,0,.17-1.18,1.28,1.28,0,0,0-.25-.79,2.07,2.07,0,0,0-.67-.56,3.58,3.58,0,0,0-.92-.34l-1.23-.29c-.48-.12-1-.23-1.54-.34a7.54,7.54,0,0,1-1.43-.45,2,2,0,0,1-1.37-1.93,2.62,2.62,0,0,1,.51-1.86,13,13,0,0,0,3.38.27H296c2.07,0,3.39.38,4,1.13a2,2,0,0,1,.38,1.23,3,3,0,0,1-.62,2.05,7.07,7.07,0,0,0-2-.34,2.35,2.35,0,0,0-1.47.51,6,6,0,0,0-1.24,1.4c-.4.6-.81,1.28-1.22,2.05-1.27,2.51-2.28,4.41-3,5.71Q280,679.11,279.6,679.77l-.85,1.43v10q0,2.94,3.25,3.48a18.75,18.75,0,0,1,4.61,1.06,2.14,2.14,0,0,1,1.23,2,2.85,2.85,0,0,1-.55,1.85,12.4,12.4,0,0,0-3.38-.28Z" transform="translate(-224 -323.5)"/><path class="cls-8" d="M303.15,680.45A31.63,31.63,0,0,1,304,673a23,23,0,0,1,2.26-5.84,17.28,17.28,0,0,1,3.38-4.32,18.76,18.76,0,0,1,4.17-2.93,20.62,20.62,0,0,1,9.54-2.22,15.07,15.07,0,0,1,11.31,4.86q5.16,5.32,5.16,14.08,0,11.48-6.26,17.87a17.63,17.63,0,0,1-13,5.5,15.91,15.91,0,0,1-12.71-5.57Q303.15,689,303.15,680.45Zm19.38,13.94a7.93,7.93,0,0,0,4.1-1.07,9.75,9.75,0,0,0,3.08-3,18.35,18.35,0,0,0,2.53-10.12,23.54,23.54,0,0,0-2.67-11.62q-3-5.49-8.65-5.5a8.78,8.78,0,0,0-7.28,3.49q-2.89,3.69-2.9,10.32,0,8.3,3.66,13.12A9.82,9.82,0,0,0,322.53,694.39Z" transform="translate(-224 -323.5)"/><path class="cls-8" d="M349.77,668.9a13.8,13.8,0,0,0-.29-3.13c-.2-.79-.59-1.18-1.18-1.18a3.15,3.15,0,0,0-1,.14l-.82.34c-.16,0-.35-.05-.58-.27a2.09,2.09,0,0,1-.65-1.32,2.41,2.41,0,0,1,.4-1.26,8.92,8.92,0,0,1,1.19-1.53,9.89,9.89,0,0,1,1.83-1.5,7.88,7.88,0,0,1,4.2-1.54,3.44,3.44,0,0,1,3.87,2.36,14.85,14.85,0,0,1,.68,5.16v21.4q0,5.77,3.49,6.46a13.94,13.94,0,0,0,2.51.2,13.59,13.59,0,0,0,3.11-.38,20.05,20.05,0,0,0,3.16-1,19.77,19.77,0,0,0,5.13-3V668.9c0-2.17-.39-3.5-1.17-4a2.26,2.26,0,0,0-1.26-.31,2.72,2.72,0,0,0-1.25.24,6.85,6.85,0,0,1-.75.34.58.58,0,0,1-.5,0,2,2,0,0,1-.44-.35,1.79,1.79,0,0,1-.51-1.17,2.35,2.35,0,0,1,.42-1.24,8.22,8.22,0,0,1,1.39-1.54,13.11,13.11,0,0,1,2.19-1.59,10.94,10.94,0,0,1,5.53-1.61c2.23,0,3.51,1.59,3.83,4.75a27.46,27.46,0,0,1,.14,2.77V685.4a29.75,29.75,0,0,0,.41,6.57,3.13,3.13,0,0,0,1,1.69,2.48,2.48,0,0,0,1.43.39,3.15,3.15,0,0,0,1.4-.27l1-.45a.73.73,0,0,1,.79.41,1.71,1.71,0,0,1,.2,1.92,5.81,5.81,0,0,1-1.59,1.64,12.46,12.46,0,0,1-2.41,1.36q-5.91,2.61-8.41-.1a7,7,0,0,1-1.46-4.44,30.37,30.37,0,0,1-10.29,5.33,15.6,15.6,0,0,1-4,.51,14.51,14.51,0,0,1-4.1-.58,8.93,8.93,0,0,1-3.47-1.88q-3.14-2.76-3.14-8.54Z" transform="translate(-224 -323.5)"/><path class="cls-8" d="M412.58,699.48a10.39,10.39,0,0,0-2.18-.17H398.81c-2.19,0-3.59-.38-4.2-1.16a1.54,1.54,0,0,1-.38-1,3.32,3.32,0,0,1,.55-2.12,4.83,4.83,0,0,0,1.52.27,3.14,3.14,0,0,0,1.18-.19,1.45,1.45,0,0,0,.75-.63,7.18,7.18,0,0,0,.48-3.21V668.9c0-2.14-.4-3.48-1.2-4a2.26,2.26,0,0,0-1.26-.31,2.72,2.72,0,0,0-1.25.24,6.85,6.85,0,0,1-.75.34.57.57,0,0,1-.5,0,1.56,1.56,0,0,1-.41-.35,1.9,1.9,0,0,1-.51-1.18,2.26,2.26,0,0,1,.43-1.23,7.78,7.78,0,0,1,1.38-1.54,13.11,13.11,0,0,1,2.19-1.59,11,11,0,0,1,5.54-1.61q3.13,0,3.72,4.1a24.52,24.52,0,0,1,.21,2.5,28.14,28.14,0,0,1,10.28-6,11.27,11.27,0,0,1,3.23-.55,6,6,0,0,1,2.39.41,3.67,3.67,0,0,1,1.49,1.13,6,6,0,0,1,1,3.59,22.93,22.93,0,0,1-.21,3.49,18.33,18.33,0,0,1-.51,2.29,7.06,7.06,0,0,1-1.16,2.56,3.42,3.42,0,0,1-2.57,1c-1.09,0-1.64-.32-1.64-1a21.73,21.73,0,0,0-.3-4.68,2.25,2.25,0,0,0-2.19-1.88,10.94,10.94,0,0,0-2.91.36,14.17,14.17,0,0,0-2.53,1,15.59,15.59,0,0,0-4.37,3.18v22.73c.07,1.8.85,2.89,2.36,3.28.43.11.92.22,1.47.31a11.72,11.72,0,0,1,1.42.32,3.78,3.78,0,0,1,.94.43,1.71,1.71,0,0,1,.58,1.43A2.91,2.91,0,0,1,412.58,699.48Z" transform="translate(-224 -323.5)"/><path class="cls-8" d="M483.74,661.34q0-7.82-5.57-9.8a13.22,13.22,0,0,0-4.48-.69,15,15,0,0,0-4.41.58,9.16,9.16,0,0,0-3.07,1.58,6.49,6.49,0,0,0-2.5,5.33q0,5,7.38,8.57l4.27,2q3.12,1.44,6,2.92a26.1,26.1,0,0,1,5.11,3.4,13,13,0,0,1,4.89,10.32,12.4,12.4,0,0,1-5.74,10.63Q480.25,700,472.15,700a29.8,29.8,0,0,1-11.34-2,9.91,9.91,0,0,1-5.16-4.07,6.24,6.24,0,0,1-.79-3.25,14.1,14.1,0,0,1,1.91-7.14,2.21,2.21,0,0,1,1.78-.79c1.46,0,2.3.44,2.53,1.3q.45,5.91,3.64,8.62t8.94,2.7q6.58,0,8.85-4.31a7.58,7.58,0,0,0,.78-3.54,6.32,6.32,0,0,0-1.09-3.64,12.88,12.88,0,0,0-2.9-3,35.54,35.54,0,0,0-7.34-4,70.82,70.82,0,0,1-7.1-3.34,21.6,21.6,0,0,1-4.5-3.35,13.89,13.89,0,0,1-4.24-10.29,11.64,11.64,0,0,1,5.37-10q5.16-3.63,13.33-3.63,10.35,0,13.53,4.27a6.5,6.5,0,0,1,1.16,4,17.94,17.94,0,0,1-.46,4.34,7.17,7.17,0,0,1-.9,2.39,3.14,3.14,0,0,1-2.58.92C484.35,662.23,483.74,661.94,483.74,661.34Z" transform="translate(-224 -323.5)"/><path class="cls-8" d="M499.42,680.93a28.63,28.63,0,0,1,.86-7.35,24.07,24.07,0,0,1,2.31-5.76,19.8,19.8,0,0,1,3.41-4.46,20.41,20.41,0,0,1,4.22-3.18,17.7,17.7,0,0,1,8.75-2.53,13.66,13.66,0,0,1,6.91,1.52,12.61,12.61,0,0,1,4.23,4.05q3,4.83,3,12.82c0,2-.84,3-2.5,3l-23.85.51q.19,7.42,3.82,11a10.92,10.92,0,0,0,8,3q7.27,0,11.82-3,.32,0,.75.51a3,3,0,0,1,.86,1.78c0,1.09-1.37,2.5-4.1,4.2a20.41,20.41,0,0,1-11,2.94q-8.2,0-12.88-5.23T499.42,680.93Zm7.59-5.74q9.84-.48,18-1.27.38-10.86-7.52-10.87a8.9,8.9,0,0,0-7.21,3.42A17,17,0,0,0,507,675.19Z" transform="translate(-224 -323.5)"/><path class="cls-8" d="M564.91,695a16.43,16.43,0,0,1-12.07,5,12.11,12.11,0,0,1-8.75-3.14,10.91,10.91,0,0,1-3.31-8.24,10.18,10.18,0,0,1,5.6-9.43q5.05-2.86,14.25-2.87h4.28c0-.87,0-1.71,0-2.53v-2.56q0-4.59-1.33-6.46c-1-1.41-2.71-2.12-5.13-2.12q-8.31,0-8.54,5.95a10.48,10.48,0,0,0,0,1.53,3.69,3.69,0,0,1-2.31.55,5.3,5.3,0,0,1-2.35-.38,4.22,4.22,0,0,1-1.29-1,5,5,0,0,1-1.16-3.4,5.7,5.7,0,0,1,1.22-3.62,8.84,8.84,0,0,1,3.29-2.55,21.47,21.47,0,0,1,9.61-2,24.31,24.31,0,0,1,8.32,1.08,11.58,11.58,0,0,1,4.42,2.85,11.94,11.94,0,0,1,2.91,8.44l-.34,16.41a21.87,21.87,0,0,0,.43,5.67,3.15,3.15,0,0,0,1,1.61,2.57,2.57,0,0,0,1.47.41,3.24,3.24,0,0,0,1.42-.27l1-.45c.31-.11.59,0,.83.39a1.94,1.94,0,0,1,.36,1,2.6,2.6,0,0,1-.36,1.11,4.91,4.91,0,0,1-1.33,1.45,11.65,11.65,0,0,1-2.2,1.35q-6.81,3.21-9.27-1.51A6.52,6.52,0,0,1,564.91,695Zm-.11-4.47c0-3.28,0-6.54.07-9.78a56.49,56.49,0,0,0-9.65.91,18.35,18.35,0,0,0-3.68,1.21,5.49,5.49,0,0,0-1.77,1.37,6.06,6.06,0,0,0-1.06,3.91,5.18,5.18,0,0,0,1.84,4.17,8,8,0,0,0,5.3,1.56A13.77,13.77,0,0,0,564.8,690.5Z" transform="translate(-224 -323.5)"/><path class="cls-8" d="M602.26,699.48a10.57,10.57,0,0,0-2.19-.17H588.49c-2.19,0-3.59-.38-4.21-1.16a1.53,1.53,0,0,1-.37-1,3.39,3.39,0,0,1,.54-2.12,4.94,4.94,0,0,0,1.53.27,3.08,3.08,0,0,0,1.17-.19,1.51,1.51,0,0,0,.76-.63,7.22,7.22,0,0,0,.47-3.21V668.9c0-2.14-.39-3.48-1.19-4a2.28,2.28,0,0,0-1.27-.31,2.68,2.68,0,0,0-1.24.24,6.85,6.85,0,0,1-.75.34.57.57,0,0,1-.5,0,1.42,1.42,0,0,1-.41-.35,1.9,1.9,0,0,1-.51-1.18,2.32,2.32,0,0,1,.42-1.23,8.22,8.22,0,0,1,1.39-1.54,13.11,13.11,0,0,1,2.19-1.59,10.94,10.94,0,0,1,5.53-1.61q3.15,0,3.73,4.1a22,22,0,0,1,.2,2.5,28.26,28.26,0,0,1,10.29-6,11.21,11.21,0,0,1,3.23-.55,6.07,6.07,0,0,1,2.39.41,3.74,3.74,0,0,1,1.49,1.13,6,6,0,0,1,1,3.59,24.55,24.55,0,0,1-.2,3.49,18.33,18.33,0,0,1-.51,2.29,6.86,6.86,0,0,1-1.17,2.56,3.38,3.38,0,0,1-2.56,1c-1.09,0-1.64-.32-1.64-1a20.83,20.83,0,0,0-.31-4.68,2.24,2.24,0,0,0-2.19-1.88,10.86,10.86,0,0,0-2.9.36,13.89,13.89,0,0,0-2.53,1A15.59,15.59,0,0,0,596,669.1v22.73a3.09,3.09,0,0,0,2.35,3.28c.44.11.93.22,1.47.31a11.3,11.3,0,0,1,1.42.32,3.61,3.61,0,0,1,.94.43,1.68,1.68,0,0,1,.58,1.43A3,3,0,0,1,602.26,699.48Z" transform="translate(-224 -323.5)"/><path class="cls-8" d="M643.85,670.13l0-1.23a13.86,13.86,0,0,0-.31-2.21,3.84,3.84,0,0,0-2-2.54,9,9,0,0,0-8.71.29,9.87,9.87,0,0,0-3.2,3.43q-2.33,4.11-2.32,11,0,6.49,3.14,10.56a10.2,10.2,0,0,0,8.48,4.17,17.47,17.47,0,0,0,9.16-2.63,15.29,15.29,0,0,0,1.64-1.13c.23,0,.49.19.79.55a2.87,2.87,0,0,1,.85,1.59,2.69,2.69,0,0,1-.48,1.37,9,9,0,0,1-1.38,1.64,20.09,20.09,0,0,1-2.17,1.76,18.28,18.28,0,0,1-2.84,1.6,17.39,17.39,0,0,1-7.35,1.64,18.91,18.91,0,0,1-7-1.28,15.17,15.17,0,0,1-5.62-3.78q-5.05-5.29-5.06-14.55,0-10.53,6.42-16.92a18.66,18.66,0,0,1,13.5-5.78,15.19,15.19,0,0,1,8.38,2.16,6.81,6.81,0,0,1,3.52,5.94,4.52,4.52,0,0,1-.89,3,4.6,4.6,0,0,1-3.57,1.82A7.27,7.27,0,0,1,643.85,670.13Z" transform="translate(-224 -323.5)"/><path class="cls-8" d="M676.63,699.48a10.3,10.3,0,0,0-2.19-.17h-10.9c-2.19,0-3.59-.38-4.21-1.16a1.53,1.53,0,0,1-.37-1,3.32,3.32,0,0,1,.55-2.12,5.94,5.94,0,0,0,1.87.27,1.71,1.71,0,0,0,1.58-.85,6.65,6.65,0,0,0,.48-3.18V648.9a6.14,6.14,0,0,0-.48-3,2.79,2.79,0,0,0-2.53-1.09h-.69a4,4,0,0,0-.7.08.91.91,0,0,1-.66-.06,1.63,1.63,0,0,1-.48-.43c-.48-.71.07-1.66,1.64-2.87a11.49,11.49,0,0,1,7-2.63c2.6,0,4,1.4,4.37,4.2a25.05,25.05,0,0,1,.14,2.67v18.62a30.24,30.24,0,0,1,11-6.05,15.21,15.21,0,0,1,8.56-.07,8.79,8.79,0,0,1,3.44,1.88q3.14,2.8,3.14,8.55v22.93c0,1.89.64,3,1.91,3.49a8.39,8.39,0,0,0,1.3.34,12.26,12.26,0,0,1,1.35.32,3.61,3.61,0,0,1,.94.43,1.68,1.68,0,0,1,.58,1.43,3,3,0,0,1-.51,1.88,10.57,10.57,0,0,0-2.19-.17h-10.9c-2.19,0-3.59-.38-4.2-1.16a1.54,1.54,0,0,1-.38-1,3.46,3.46,0,0,1,.51-2.12,6.13,6.13,0,0,0,1.85.27,1.77,1.77,0,0,0,1.52-.72,5,5,0,0,0,.6-2.63V671.08q0-5.8-3.45-6.49a14.09,14.09,0,0,0-2.65-.2,14.82,14.82,0,0,0-3.49.47,22.06,22.06,0,0,0-3.57,1.23,18.28,18.28,0,0,0-5.4,3.59v21.91c0,1.89.64,3,1.91,3.49a8.39,8.39,0,0,0,1.3.34,12.26,12.26,0,0,1,1.35.32,3.46,3.46,0,0,1,.94.43,1.68,1.68,0,0,1,.58,1.43A2.94,2.94,0,0,1,676.63,699.48Z" transform="translate(-224 -323.5)"/><path class="cls-8" d="M762.1,661.34q0-7.82-5.57-9.8a13.22,13.22,0,0,0-4.48-.69,15,15,0,0,0-4.4.58,9.12,9.12,0,0,0-3.08,1.58,6.52,6.52,0,0,0-2.5,5.33q0,5,7.39,8.57l4.27,2q3.1,1.44,6,2.92a26.72,26.72,0,0,1,5.11,3.4,13.06,13.06,0,0,1,4.88,10.32A12.4,12.4,0,0,1,764,696.2Q758.61,700,750.52,700a29.82,29.82,0,0,1-11.35-2,9.91,9.91,0,0,1-5.16-4.07,6.24,6.24,0,0,1-.79-3.25,14,14,0,0,1,1.92-7.14,2.18,2.18,0,0,1,1.77-.79c1.46,0,2.3.44,2.53,1.3q.45,5.91,3.64,8.62t8.94,2.7q6.6,0,8.85-4.31a7.46,7.46,0,0,0,.79-3.54,6.33,6.33,0,0,0-1.1-3.64,12.68,12.68,0,0,0-2.9-3,35.69,35.69,0,0,0-7.33-4,72.27,72.27,0,0,1-7.11-3.34,21.28,21.28,0,0,1-4.49-3.35,13.85,13.85,0,0,1-4.24-10.29,11.66,11.66,0,0,1,5.36-10q5.16-3.63,13.33-3.63,10.37,0,13.54,4.27a6.56,6.56,0,0,1,1.16,4,18.45,18.45,0,0,1-.46,4.34,6.91,6.91,0,0,1-.91,2.39,3.14,3.14,0,0,1-2.58.92C762.71,662.23,762.1,661.94,762.1,661.34Z" transform="translate(-224 -323.5)"/><path class="cls-8" d="M789.54,676l0,9q0,5.64.58,6.79a2.37,2.37,0,0,0,1.37,1.36,7.43,7.43,0,0,0,2,.23,12.62,12.62,0,0,0,2.23-.19,12.84,12.84,0,0,0,1.9-.5c.59-.2,1.16-.43,1.71-.68l1.67-.72c.39-.13.82.26,1.3,1.2a1.75,1.75,0,0,1,.21.87,3,3,0,0,1-.41,1.28,6.9,6.9,0,0,1-1.59,1.8,16.14,16.14,0,0,1-8.89,3.53,26.43,26.43,0,0,1-4.42-.3,6.73,6.73,0,0,1-2.91-1.23q-2.46-1.92-2.46-7v-26.9h-3.38a1.73,1.73,0,0,1-1.54-.68,3.16,3.16,0,0,1-.82-1.78c0-.8.19-1.24.58-1.33,3.62-.62,6.19-3.3,7.69-8.07a33,33,0,0,0,1-5.09,16.52,16.52,0,0,1,2.47-.27,1.77,1.77,0,0,1,1.46.85,3.16,3.16,0,0,1,.59,2c0,.76,0,1.46,0,2.12s0,1.38-.07,2.16l-.13,4.78h11.82a3.33,3.33,0,0,1,.45,1.68v1.06a2.7,2.7,0,0,1-1.54,2.34,6.62,6.62,0,0,1-3.4.9c-1.24,0-2.13,0-2.67,0s-1-.07-1.55-.12l-1.51-.2-1.67-.14V665Z" transform="translate(-224 -323.5)"/><path class="cls-8" d="M832.26,695a16.4,16.4,0,0,1-12.06,5,12.11,12.11,0,0,1-8.75-3.14,10.91,10.91,0,0,1-3.31-8.24,10.16,10.16,0,0,1,5.6-9.43q5.06-2.86,14.25-2.87h4.27c0-.87,0-1.71,0-2.53v-2.56c0-3.06-.45-5.21-1.33-6.46q-1.51-2.12-5.13-2.12-8.31,0-8.54,5.95a9.23,9.23,0,0,0,0,1.53,3.71,3.71,0,0,1-2.31.55,5.35,5.35,0,0,1-2.36-.38,4.18,4.18,0,0,1-1.28-1,5,5,0,0,1-1.16-3.4,5.75,5.75,0,0,1,1.21-3.62,9,9,0,0,1,3.3-2.55,21.44,21.44,0,0,1,9.61-2,24.31,24.31,0,0,1,8.32,1.08,11.66,11.66,0,0,1,4.42,2.85A11.94,11.94,0,0,1,840,670l-.34,16.41a22.54,22.54,0,0,0,.42,5.67,3.22,3.22,0,0,0,1,1.61,2.57,2.57,0,0,0,1.47.41,3.24,3.24,0,0,0,1.42-.27l1-.45q.48-.17.84.39a1.94,1.94,0,0,1,.36,1,2.6,2.6,0,0,1-.36,1.11,4.91,4.91,0,0,1-1.33,1.45,11.73,11.73,0,0,1-2.21,1.35q-6.79,3.21-9.26-1.51A6.74,6.74,0,0,1,832.26,695Zm-.1-4.47q0-4.92.07-9.78a56.49,56.49,0,0,0-9.65.91,18.12,18.12,0,0,0-3.68,1.21,5.65,5.65,0,0,0-1.78,1.37,6.12,6.12,0,0,0-1,3.91,5.18,5.18,0,0,0,1.84,4.17,8,8,0,0,0,5.3,1.56A13.77,13.77,0,0,0,832.16,690.5Z" transform="translate(-224 -323.5)"/><path class="cls-8" d="M869.62,699.48a10.57,10.57,0,0,0-2.19-.17H855.85c-2.19,0-3.59-.38-4.21-1.16a1.53,1.53,0,0,1-.37-1,3.39,3.39,0,0,1,.54-2.12,4.93,4.93,0,0,0,1.52.27,3.14,3.14,0,0,0,1.18-.19,1.51,1.51,0,0,0,.76-.63,7.37,7.37,0,0,0,.47-3.21V668.9c0-2.14-.4-3.48-1.19-4a2.28,2.28,0,0,0-1.27-.31,2.68,2.68,0,0,0-1.24.24,6.12,6.12,0,0,1-.76.34.55.55,0,0,1-.49,0,1.3,1.3,0,0,1-.41-.35,1.9,1.9,0,0,1-.51-1.18,2.32,2.32,0,0,1,.42-1.23,8.22,8.22,0,0,1,1.39-1.54,12.62,12.62,0,0,1,2.18-1.59,11,11,0,0,1,5.54-1.61q3.15,0,3.73,4.1a22,22,0,0,1,.2,2.5,28.26,28.26,0,0,1,10.29-6,11.21,11.21,0,0,1,3.23-.55,6.07,6.07,0,0,1,2.39.41,3.74,3.74,0,0,1,1.49,1.13,6,6,0,0,1,1,3.59,24.55,24.55,0,0,1-.2,3.49,16.63,16.63,0,0,1-.52,2.29,6.89,6.89,0,0,1-1.16,2.56,3.4,3.4,0,0,1-2.56,1c-1.09,0-1.64-.32-1.64-1a20.83,20.83,0,0,0-.31-4.68,2.25,2.25,0,0,0-2.19-1.88,10.81,10.81,0,0,0-2.9.36,13.89,13.89,0,0,0-2.53,1,15.78,15.78,0,0,0-4.38,3.18v22.73a3.11,3.11,0,0,0,2.36,3.28c.44.11.93.22,1.47.31a11.3,11.3,0,0,1,1.42.32,3.61,3.61,0,0,1,.94.43,1.68,1.68,0,0,1,.58,1.43A3,3,0,0,1,869.62,699.48Z" transform="translate(-224 -323.5)"/><path class="cls-8" d="M898.43,676l0,9q0,5.64.58,6.79a2.36,2.36,0,0,0,1.36,1.36,7.54,7.54,0,0,0,2,.23,12.74,12.74,0,0,0,2.24-.19,13.53,13.53,0,0,0,1.9-.5,17.2,17.2,0,0,0,1.7-.68l1.68-.72c.39-.13.82.26,1.3,1.2a1.86,1.86,0,0,1,.2.87,2.86,2.86,0,0,1-.41,1.28,6.54,6.54,0,0,1-1.59,1.8,13.18,13.18,0,0,1-2.75,1.79A13.78,13.78,0,0,1,900.5,700a26.56,26.56,0,0,1-4.43-.3,6.64,6.64,0,0,1-2.9-1.23q-2.46-1.92-2.46-7v-26.9h-3.39a1.75,1.75,0,0,1-1.54-.68,3.24,3.24,0,0,1-.82-1.78c0-.8.2-1.24.59-1.33,3.62-.62,6.18-3.3,7.68-8.07a30.76,30.76,0,0,0,1-5.09,16.63,16.63,0,0,1,2.48-.27,1.76,1.76,0,0,1,1.45.85,3.23,3.23,0,0,1,.6,2c0,.76,0,1.46,0,2.12s0,1.38-.07,2.16l-.14,4.78h11.83a3.43,3.43,0,0,1,.44,1.68v1.06a2.68,2.68,0,0,1-1.54,2.34,6.6,6.6,0,0,1-3.4.9c-1.24,0-2.13,0-2.66,0s-1.06-.07-1.56-.12l-1.5-.2-1.68-.14V665Z" transform="translate(-224 -323.5)"/><path class="cls-8" d="M940.43,669.79q0-5.26-4.37-7a8.4,8.4,0,0,0-3-.54,15.64,15.64,0,0,0-3,.27,8.62,8.62,0,0,0-2.45.85,4.07,4.07,0,0,0-2.39,3.73,5.17,5.17,0,0,0,2,4,38.25,38.25,0,0,0,8.14,4.46,31.65,31.65,0,0,1,9.17,5.78,9.73,9.73,0,0,1-.53,14.92q-4.41,3.65-12.2,3.65-9.54,0-13.19-4.06a5.36,5.36,0,0,1-1.27-3.66q0-5.37,2.64-6.25a4,4,0,0,1,1.23-.21q1.61,0,1.74,1,.75,8.55,9.57,8.55c3.53,0,5.89-1,7.07-3a4.37,4.37,0,0,0,.58-2.32,4,4,0,0,0-.87-2.5,9.21,9.21,0,0,0-2.41-2.1,27.25,27.25,0,0,0-3.65-1.9l-4.55-2q-10.46-4.79-10.46-12.71a9.46,9.46,0,0,1,4.55-8.2q4.31-2.91,11.11-2.91,9.23,0,11.48,4a4.5,4.5,0,0,1,.58,2.26,16.07,16.07,0,0,1-.14,2.2,14.5,14.5,0,0,1-.34,1.76,6.39,6.39,0,0,1-.78,2.12,4.33,4.33,0,0,1-2.55.65C941,670.64,940.43,670.36,940.43,669.79Z" transform="translate(-224 -323.5)"/></svg>